<svg data-v-423bf9ae="" xmlns="http://www.w3.org/2000/svg" viewBox="0 0 460 90" class="iconLeftSlogan"><!----><!----><!----><g data-v-423bf9ae="" id="fc8da675-a34d-44ba-92ed-7712ef866cce" fill="#FFFFFF" transform="matrix(4.285714285714286,0,0,4.285714285714286,121.45217084884644,-7.200000524520874)"><path d="M0.98 2.80L0.98 12.60L3.99 12.60C4.96 12.60 5.77 12.33 6.42 11.79C7.07 11.26 7.39 10.55 7.39 9.66C7.39 9.03 7.22 8.50 6.87 8.09C6.52 7.68 6.04 7.38 5.43 7.20C6.37 6.89 6.83 6.26 6.83 5.32C6.83 4.55 6.55 3.94 5.98 3.49C5.41 3.03 4.65 2.80 3.71 2.80ZM2.52 6.58L2.52 4.20L3.71 4.20C4.76 4.20 5.29 4.60 5.29 5.39C5.29 5.79 5.17 6.09 4.91 6.29C4.66 6.48 4.26 6.58 3.71 6.58ZM2.52 7.98L3.99 7.98C4.56 7.98 5.01 8.12 5.35 8.39C5.68 8.67 5.85 9.07 5.85 9.59C5.85 10.11 5.68 10.51 5.35 10.79C5.01 11.06 4.56 11.20 3.99 11.20L2.52 11.20ZM8.44 9.38C8.44 10.40 8.78 11.21 9.46 11.82C10.13 12.43 10.98 12.74 11.98 12.74C12.99 12.74 13.83 12.43 14.51 11.82C15.19 11.21 15.53 10.40 15.53 9.38C15.53 8.36 15.19 7.55 14.51 6.94C13.83 6.33 12.99 6.02 11.98 6.02C10.98 6.02 10.13 6.33 9.46 6.94C8.78 7.55 8.44 8.36 8.44 9.38ZM9.93 9.38C9.93 8.75 10.12 8.26 10.50 7.90C10.88 7.53 11.38 7.35 11.98 7.35C12.59 7.35 13.09 7.53 13.47 7.90C13.85 8.26 14.04 8.75 14.04 9.38C14.04 10.01 13.85 10.50 13.47 10.86C13.09 11.23 12.59 11.41 11.98 11.41C11.38 11.41 10.88 11.23 10.50 10.86C10.12 10.50 9.93 10.01 9.93 9.38ZM16.37 9.38C16.37 10.40 16.70 11.21 17.38 11.82C18.06 12.43 18.90 12.74 19.91 12.74C20.92 12.74 21.76 12.43 22.44 11.82C23.11 11.21 23.45 10.40 23.45 9.38C23.45 8.36 23.11 7.55 22.44 6.94C21.76 6.33 20.92 6.02 19.91 6.02C18.90 6.02 18.06 6.33 17.38 6.94C16.70 7.55 16.37 8.36 16.37 9.38ZM17.85 9.38C17.85 8.75 18.04 8.26 18.42 7.90C18.81 7.53 19.30 7.35 19.91 7.35C20.51 7.35 21.01 7.53 21.39 7.90C21.77 8.26 21.97 8.75 21.97 9.38C21.97 10.01 21.77 10.50 21.39 10.86C21.01 11.23 20.51 11.41 19.91 11.41C19.30 11.41 18.81 11.23 18.42 10.86C18.04 10.50 17.85 10.01 17.85 9.38ZM24.78 1.68L24.78 12.60L26.25 12.60L26.25 9.34L28.91 12.60L30.73 12.60L27.65 8.82L30.45 6.16L28.63 6.16L26.25 8.43L26.25 1.68ZM43.53 6.90L44.17 12.60L45.78 12.60L44.45 2.59L40.46 9.02L36.47 2.59L35.14 12.60L36.75 12.60L37.39 6.90L40.46 11.69ZM45.92 6.16L48.52 12.21L47.04 15.68L48.72 15.68L52.92 6.16L51.24 6.16L49.42 10.71L47.60 6.16ZM57.12 4.20L59.64 4.20L59.64 12.60L61.18 12.60L61.18 4.20L63.70 4.20L63.70 2.80L57.12 2.80ZM67.19 7.67L67.80 6.47C67.51 6.17 67.11 6.02 66.60 6.02C66.35 6.02 66.09 6.11 65.84 6.29C65.58 6.47 65.36 6.72 65.17 7.03L65.17 6.16L63.63 6.16L63.63 12.60L65.17 12.60L65.17 8.82C65.17 7.84 65.53 7.35 66.25 7.35C66.57 7.35 66.89 7.46 67.19 7.67ZM68.50 3.64C68.50 3.89 68.60 4.11 68.78 4.28C68.97 4.46 69.19 4.55 69.45 4.55C69.72 4.55 69.94 4.46 70.13 4.28C70.31 4.11 70.41 3.89 70.41 3.64C70.41 3.39 70.31 3.17 70.13 3.00C69.94 2.82 69.72 2.73 69.45 2.73C69.19 2.73 68.97 2.82 68.78 3.00C68.60 3.17 68.50 3.39 68.50 3.64ZM68.71 6.16L68.71 12.60L70.20 12.60L70.20 6.16ZM78.95 9.38C78.95 8.32 78.63 7.49 78.01 6.90C77.38 6.31 76.61 6.02 75.68 6.02C74.69 6.02 73.93 6.45 73.42 7.31L73.42 6.16L71.95 6.16L71.95 15.68L73.42 15.68L73.42 11.45C73.93 12.31 74.69 12.74 75.68 12.74C76.61 12.74 77.38 12.45 78.01 11.86C78.63 11.27 78.95 10.44 78.95 9.38ZM77.46 9.38C77.46 10.03 77.27 10.54 76.89 10.88C76.52 11.23 76.02 11.41 75.40 11.41C74.85 11.41 74.38 11.24 74.00 10.91C73.61 10.58 73.42 10.07 73.42 9.38C73.42 8.69 73.61 8.18 74.00 7.85C74.38 7.52 74.85 7.35 75.40 7.35C76.02 7.35 76.52 7.52 76.89 7.87C77.27 8.22 77.46 8.73 77.46 9.38Z"></path></g><defs data-v-423bf9ae=""><linearGradient data-v-423bf9ae="" gradientTransform="rotate(25)" id="ec965e30-b776-435e-ad72-f6e865d0f0f5" x1="0%" y1="0%" x2="100%" y2="0%"><stop data-v-423bf9ae="" offset="0%" style="stop-color: rgb(255, 88, 88); stop-opacity: 1;"></stop><stop data-v-423bf9ae="" offset="100%" style="stop-color: rgb(251, 254, 122); stop-opacity: 1;"></stop></linearGradient></defs><g data-v-423bf9ae="" id="c312a5b6-fdf3-4161-8758-447a7bab138f" transform="matrix(1.9565217391304348,0,0,1.9565217391304348,-9.608695652173914,-17.608695652173914)" stroke="none" fill="url(#ec965e30-b776-435e-ad72-f6e865d0f0f5)"><path d="M24.609 46.18l-9.702-2.425.485-1.94 9.702 2.425zM37.164 35.613l-.248-1.985 9.924-1.24.248 1.985z"></path><circle cx="22" cy="30" r="3"></circle><path d="M54 17H43v-7a1 1 0 0 0-1-1H22a1 1 0 0 0-1 1v7H10c-2.757 0-5 2.243-5 5v28c0 2.757 2.243 5 5 5h44c2.757 0 5-2.243 5-5V22c0-2.757-2.243-5-5-5zm-31-6h18v6H23v-6zm-1 14c2.757 0 5 2.243 5 5s-2.243 5-5 5-5-2.243-5-5 2.243-5 5-5zm5.276 18.757l-.97 3.881a1 1 0 0 1-1.213.728l-11.642-2.91a.995.995 0 0 1-.728-1.212l.97-3.881a1 1 0 0 1 1.213-.728l11.642 2.91a.995.995 0 0 1 .728 1.212zm21.715-7.903a1 1 0 0 1-.665.378L36.418 37.72a1 1 0 0 1-1.116-.868l-.496-3.969a1 1 0 0 1 .868-1.116l11.908-1.489a1.001 1.001 0 0 1 1.116.869l.496 3.969a.994.994 0 0 1-.203.738z"></path></g><!----><g data-v-423bf9ae="" id="94553d59-c052-4b39-b1f4-0b8bfdb66322" fill="#FFFFFF" transform="matrix(1.352110180905032,0,0,1.352110180905032,121.56879453158814,53.60452000710522)"><path d="M4.19 6.69L4.19 6.69L4.19 6.69Q3.63 6.69 3.33 6.38L3.33 6.38L3.33 6.38Q3.02 6.06 3.02 5.61L3.02 5.61L3.02 5.61Q3.02 5.50 3.06 5.35L3.06 5.35L3.06 5.35Q3.09 5.19 3.15 5.08L3.15 5.08L3.15 5.08Q3.33 5.17 3.69 5.20L3.69 5.20L3.69 5.20Q4.05 5.24 4.52 5.24L4.52 5.24L4.52 5.24Q5.24 5.24 6.14 5.17L6.14 5.17L6.14 5.17Q7.04 5.11 7.87 5.04L7.87 5.04L7.87 5.04Q8.69 4.97 9.32 4.91L9.32 4.91L9.32 4.91Q9.95 4.84 10.14 4.84L10.14 4.84L10.14 4.84Q10.65 4.84 10.88 5.23L10.88 5.23L10.88 5.23Q11.12 5.61 11.23 6.26L11.23 6.26L11.23 6.26Q10.86 6.23 10.51 6.21L10.51 6.21L10.51 6.21Q10.15 6.19 9.90 6.19L9.90 6.19L9.90 6.19Q9.45 6.19 9.00 6.22L9.00 6.22L9.00 6.22Q8.54 6.24 8.08 6.30L8.08 6.30L8.08 6.30Q7.88 6.71 7.64 7.26L7.64 7.26L7.64 7.26Q7.41 7.81 7.17 8.41L7.17 8.41L7.17 8.41Q6.94 9.02 6.73 9.61L6.73 9.61L6.73 9.61Q6.52 10.21 6.37 10.68L6.37 10.68L6.37 10.68Q6.06 11.61 5.83 12.39L5.83 12.39L5.83 12.39Q5.60 13.17 5.42 13.85L5.42 13.85L5.42 13.85Q5.25 14.53 5.12 15.15L5.12 15.15L5.12 15.15Q5.00 15.76 4.90 16.35L4.90 16.35L4.90 16.35Q3.96 16.21 3.33 15.18L3.33 15.18L3.33 15.18Q3.44 14.74 3.60 14.23L3.60 14.23L3.60 14.23Q3.77 13.72 3.98 13.07L3.98 13.07L3.98 13.07Q4.20 12.42 4.49 11.59L4.49 11.59L4.49 11.59Q4.79 10.77 5.17 9.72L5.17 9.72L5.17 9.72Q5.31 9.32 5.46 8.90L5.46 8.90L5.46 8.90Q5.61 8.47 5.76 8.05L5.76 8.05L5.76 8.05Q5.91 7.63 6.03 7.24L6.03 7.24L6.03 7.24Q6.15 6.85 6.23 6.52L6.23 6.52L6.23 6.52Q5.64 6.59 5.12 6.64L5.12 6.64L5.12 6.64Q4.59 6.69 4.19 6.69ZM17.07 14.38L17.07 14.38L17.07 14.38Q17.07 13.87 17.23 13.07L17.23 13.07L17.23 13.07Q17.39 12.26 17.65 11.33L17.65 11.33L17.65 11.33Q17.91 10.40 18.24 9.43L18.24 9.43L18.24 9.43Q18.58 8.46 18.93 7.60L18.93 7.60L18.93 7.60Q19.28 6.75 19.61 6.10L19.61 6.10L19.61 6.10Q19.95 5.46 20.22 5.18L20.22 5.18L20.22 5.18Q20.36 5.19 20.59 5.29L20.59 5.29L20.59 5.29Q20.82 5.38 21.06 5.50L21.06 5.50L21.06 5.50Q21.29 5.63 21.49 5.78L21.49 5.78L21.49 5.78Q21.69 5.92 21.74 6.05L21.74 6.05L21.74 6.05Q21.34 6.41 20.94 7.15L20.94 7.15L20.94 7.15Q20.54 7.88 20.17 8.82L20.17 8.82L20.17 8.82Q19.80 9.76 19.47 10.80L19.47 10.80L19.47 10.80Q19.15 11.84 18.91 12.82L18.91 12.82L18.91 12.82Q18.68 13.80 18.54 14.64L18.54 14.64L18.54 14.64Q18.41 15.48 18.41 16.00L18.41 16.00L18.41 16.00Q18.41 16.24 18.45 16.30L18.45 16.30L18.45 16.30Q18.14 16.28 18.00 16.19L18.00 16.19L18.00 16.19Q17.86 16.10 17.79 16.00L17.79 16.00L17.79 16.00Q17.71 15.89 17.65 15.79L17.65 15.79L17.65 15.79Q17.58 15.68 17.46 15.62L17.46 15.62L17.46 15.62Q17.36 15.58 17.29 15.43L17.29 15.43L17.29 15.43Q17.22 15.27 17.17 15.09L17.17 15.09L17.17 15.09Q17.12 14.90 17.09 14.70L17.09 14.70L17.09 14.70Q17.07 14.50 17.07 14.38ZM33.84 16.21L33.84 16.21L33.84 16.21Q33.81 16.23 33.78 16.23L33.78 16.23L33.78 16.23Q33.75 16.23 33.67 16.23L33.67 16.23L33.67 16.23Q33.47 16.23 33.22 16.16L33.22 16.16L33.22 16.16Q32.96 16.10 32.71 16.01L32.71 16.01L32.71 16.01Q32.47 15.92 32.29 15.81L32.29 15.81L32.29 15.81Q32.12 15.69 32.07 15.61L32.07 15.61L32.07 15.61Q32.06 15.41 32.06 15.20L32.06 15.20L32.06 15.20Q32.06 14.99 32.06 14.80L32.06 14.80L32.06 14.80Q32.06 13.23 32.29 11.52L32.29 11.52L32.29 11.52Q32.52 9.81 33.05 7.83L33.05 7.83L33.05 7.83Q33.11 7.63 33.17 7.33L33.17 7.33L33.17 7.33Q33.24 7.03 33.31 6.68L33.31 6.68L33.31 6.68Q32.97 6.94 32.51 7.53L32.51 7.53L32.51 7.53Q32.05 8.11 31.54 8.90L31.54 8.90L31.54 8.90Q31.02 9.69 30.51 10.63L30.51 10.63L30.51 10.63Q30.00 11.58 29.58 12.55L29.58 12.55L29.58 12.55Q29.16 13.52 28.86 14.48L28.86 14.48L28.86 14.48Q28.56 15.43 28.49 16.24L28.49 16.24L28.49 16.24Q27.82 16.04 27.56 15.85L27.56 15.85L27.56 15.85Q27.30 15.65 27.30 15.37L27.30 15.37L27.30 15.37Q27.30 15.12 27.45 14.66L27.45 14.66L27.45 14.66Q27.61 14.20 27.89 13.57L27.89 13.57L27.89 13.57Q28.17 12.94 28.57 12.16L28.57 12.16L28.57 12.16Q28.98 11.38 29.47 10.49L29.47 10.49L29.47 10.49Q30.03 9.46 30.57 8.57L30.57 8.57L30.57 8.57Q31.11 7.67 31.63 6.94L31.63 6.94L31.63 6.94Q32.14 6.22 32.64 5.68L32.64 5.68L32.64 5.68Q33.14 5.15 33.63 4.87L33.63 4.87L33.63 4.87Q33.82 4.87 34.15 4.97L34.15 4.97L34.15 4.97Q34.48 5.07 34.80 5.21L34.80 5.21L34.80 5.21Q35.11 5.35 35.36 5.49L35.36 5.49L35.36 5.49Q35.60 5.64 35.63 5.74L35.63 5.74L35.63 5.74Q35.43 6.13 35.17 6.92L35.17 6.92L35.17 6.92Q34.90 7.70 34.63 8.69L34.63 8.69L34.63 8.69Q34.36 9.69 34.11 10.80L34.11 10.80L34.11 10.80Q33.87 11.91 33.73 12.94L33.73 12.94L33.73 12.94Q34.05 12.17 34.48 11.33L34.48 11.33L34.48 11.33Q34.90 10.50 35.38 9.68L35.38 9.68L35.38 9.68Q35.85 8.86 36.35 8.09L36.35 8.09L36.35 8.09Q36.85 7.32 37.32 6.69L37.32 6.69L37.32 6.69Q37.80 6.05 38.21 5.57L38.21 5.57L38.21 5.57Q38.63 5.10 38.95 4.87L38.95 4.87L38.95 4.87Q39.14 4.87 39.47 4.97L39.47 4.97L39.47 4.97Q39.80 5.07 40.12 5.21L40.12 5.21L40.12 5.21Q40.43 5.35 40.68 5.49L40.68 5.49L40.68 5.49Q40.92 5.64 40.95 5.74L40.95 5.74L40.95 5.74Q40.50 6.54 40.17 7.69L40.17 7.69L40.17 7.69Q39.83 8.83 39.60 10.09L39.60 10.09L39.60 10.09Q39.37 11.35 39.25 12.59L39.25 12.59L39.25 12.59Q39.13 13.83 39.13 14.81L39.13 14.81L39.13 14.81Q39.13 15.13 39.13 15.48L39.13 15.48L39.13 15.48Q39.13 15.83 39.16 16.21L39.16 16.21L39.16 16.21Q38.96 16.21 38.69 16.16L38.69 16.16L38.69 16.16Q38.42 16.11 38.16 16.03L38.16 16.03L38.16 16.03Q37.90 15.95 37.69 15.84L37.69 15.84L37.69 15.84Q37.48 15.74 37.39 15.61L37.39 15.61L37.39 15.61Q37.38 15.41 37.38 15.20L37.38 15.20L37.38 15.20Q37.38 14.99 37.38 14.80L37.38 14.80L37.38 14.80Q37.38 13.23 37.61 11.52L37.61 11.52L37.61 11.52Q37.84 9.81 38.37 7.83L38.37 7.83L38.37 7.83Q38.43 7.63 38.50 7.29L38.50 7.29L38.50 7.29Q38.57 6.96 38.64 6.59L38.64 6.59L38.64 6.59Q38.25 6.79 37.75 7.34L37.75 7.34L37.75 7.34Q37.25 7.90 36.74 8.69L36.74 8.69L36.74 8.69Q36.23 9.48 35.73 10.44L35.73 10.44L35.73 10.44Q35.24 11.41 34.84 12.41L34.84 12.41L34.84 12.41Q34.44 13.41 34.17 14.40L34.17 14.40L34.17 14.40Q33.89 15.39 33.84 16.21ZM53.90 9.21L53.90 9.21L53.90 9.21Q54.36 9.21 54.62 9.46L54.62 9.46L54.62 9.46Q54.88 9.72 54.88 10.16L54.88 10.16L54.88 10.16Q54.88 10.28 54.86 10.39L54.86 10.39L54.86 10.39Q54.84 10.51 54.81 10.60L54.81 10.60L54.81 10.60Q54.63 10.57 54.40 10.55L54.40 10.55L54.40 10.55Q54.18 10.53 53.87 10.53L53.87 10.53L53.87 10.53Q53.27 10.53 52.65 10.63L52.65 10.63L52.65 10.63Q52.04 10.74 51.48 10.81L51.48 10.81L51.48 10.81Q51.16 11.55 50.89 12.24L50.89 12.24L50.89 12.24Q50.62 12.94 50.44 13.51L50.44 13.51L50.44 13.51Q50.25 14.08 50.14 14.50L50.14 14.50L50.14 14.50Q50.04 14.92 50.02 15.13L50.02 15.13L50.02 15.13Q51.16 14.90 52.31 14.73L52.31 14.73L52.31 14.73Q53.47 14.56 54.74 14.48L54.74 14.48L54.74 14.48Q54.89 14.71 55.00 14.99L55.00 14.99L55.00 14.99Q55.10 15.27 55.10 15.60L55.10 15.60L55.10 15.60Q55.10 15.68 55.10 15.78L55.10 15.78L55.10 15.78Q55.10 15.88 55.08 15.97L55.08 15.97L55.08 15.97Q54.68 15.96 54.25 15.95L54.25 15.95L54.25 15.95Q53.82 15.95 53.12 15.95L53.12 15.95L53.12 15.95Q52.65 15.95 52.24 15.97L52.24 15.97L52.24 15.97Q51.83 15.99 51.41 16.03L51.41 16.03L51.41 16.03Q50.99 16.07 50.52 16.14L50.52 16.14L50.52 16.14Q50.05 16.21 49.46 16.31L49.46 16.31L49.46 16.31Q48.82 16.06 48.22 15.08L48.22 15.08L48.22 15.08Q48.45 14.57 48.88 13.54L48.88 13.54L48.88 13.54Q49.31 12.52 49.97 10.79L49.97 10.79L49.97 10.79Q49.34 10.60 49.14 10.09L49.14 10.09L49.14 10.09Q49.21 10.02 49.55 9.92L49.55 9.92L49.55 9.92Q49.88 9.81 50.37 9.70L50.37 9.70L50.37 9.70Q50.58 9.16 50.73 8.75L50.73 8.75L50.73 8.75Q50.88 8.34 50.99 7.99L50.99 7.99L50.99 7.99Q51.10 7.63 51.19 7.29L51.19 7.29L51.19 7.29Q51.28 6.94 51.37 6.54L51.37 6.54L51.37 6.54Q50.88 6.51 50.60 6.27L50.60 6.27L50.60 6.27Q50.32 6.02 50.32 5.63L50.32 5.63L50.32 5.63Q50.32 5.52 50.35 5.36L50.35 5.36L50.35 5.36Q50.39 5.21 50.43 5.10L50.43 5.10L50.43 5.10Q50.71 5.14 50.97 5.15L50.97 5.15L50.97 5.15Q51.23 5.17 51.65 5.17L51.65 5.17L51.65 5.17Q52.53 5.17 53.30 5.12L53.30 5.12L53.30 5.12Q54.07 5.07 54.69 5.01L54.69 5.01L54.69 5.01Q55.31 4.96 55.76 4.91L55.76 4.91L55.76 4.91Q56.21 4.86 56.45 4.86L56.45 4.86L56.45 4.86Q56.77 4.86 57.02 5.19L57.02 5.19L57.02 5.19Q57.27 5.53 57.40 6.15L57.40 6.15L57.40 6.15Q56.97 6.10 56.69 6.09L56.69 6.09L56.69 6.09Q56.42 6.08 56.21 6.08L56.21 6.08L56.21 6.08Q55.44 6.08 54.80 6.15L54.80 6.15L54.80 6.15Q54.17 6.23 53.58 6.31L53.58 6.31L53.58 6.31Q53.49 6.44 53.39 6.64L53.39 6.64L53.39 6.64Q53.28 6.83 53.12 7.18L53.12 7.18L53.12 7.18Q52.95 7.53 52.70 8.06L52.70 8.06L52.70 8.06Q52.46 8.60 52.11 9.39L52.11 9.39L52.11 9.39Q52.64 9.31 53.11 9.26L53.11 9.26L53.11 9.26Q53.58 9.21 53.90 9.21ZM76.75 6.69L76.75 6.69L76.75 6.69Q76.19 6.69 75.89 6.38L75.89 6.38L75.89 6.38Q75.59 6.06 75.59 5.61L75.59 5.61L75.59 5.61Q75.59 5.50 75.62 5.35L75.62 5.35L75.62 5.35Q75.66 5.19 75.71 5.08L75.71 5.08L75.71 5.08Q75.89 5.17 76.25 5.20L76.25 5.20L76.25 5.20Q76.61 5.24 77.08 5.24L77.08 5.24L77.08 5.24Q77.80 5.24 78.70 5.17L78.70 5.17L78.70 5.17Q79.60 5.11 80.43 5.04L80.43 5.04L80.43 5.04Q81.26 4.97 81.89 4.91L81.89 4.91L81.89 4.91Q82.52 4.84 82.70 4.84L82.70 4.84L82.70 4.84Q83.22 4.84 83.45 5.23L83.45 5.23L83.45 5.23Q83.68 5.61 83.79 6.26L83.79 6.26L83.79 6.26Q83.43 6.23 83.07 6.21L83.07 6.21L83.07 6.21Q82.71 6.19 82.46 6.19L82.46 6.19L82.46 6.19Q82.01 6.19 81.56 6.22L81.56 6.22L81.56 6.22Q81.10 6.24 80.64 6.30L80.64 6.30L80.64 6.30Q80.44 6.71 80.21 7.26L80.21 7.26L80.21 7.26Q79.97 7.81 79.74 8.41L79.74 8.41L79.74 8.41Q79.51 9.02 79.30 9.61L79.30 9.61L79.30 9.61Q79.09 10.21 78.93 10.68L78.93 10.68L78.93 10.68Q78.62 11.61 78.39 12.39L78.39 12.39L78.39 12.39Q78.16 13.17 77.99 13.85L77.99 13.85L77.99 13.85Q77.81 14.53 77.69 15.15L77.69 15.15L77.69 15.15Q77.56 15.76 77.46 16.35L77.46 16.35L77.46 16.35Q76.52 16.21 75.89 15.18L75.89 15.18L75.89 15.18Q76.01 14.74 76.17 14.23L76.17 14.23L76.17 14.23Q76.33 13.72 76.55 13.07L76.55 13.07L76.55 13.07Q76.76 12.42 77.06 11.59L77.06 11.59L77.06 11.59Q77.35 10.77 77.73 9.72L77.73 9.72L77.73 9.72Q77.87 9.32 78.02 8.90L78.02 8.90L78.02 8.90Q78.18 8.47 78.32 8.05L78.32 8.05L78.32 8.05Q78.47 7.63 78.59 7.24L78.59 7.24L78.59 7.24Q78.71 6.85 78.79 6.52L78.79 6.52L78.79 6.52Q78.20 6.59 77.68 6.64L77.68 6.64L77.68 6.64Q77.15 6.69 76.75 6.69ZM95.66 4.98L95.66 4.98L95.66 4.98Q95.93 5.10 96.21 5.27L96.21 5.27L96.21 5.27Q96.49 5.45 96.73 5.63L96.73 5.63L96.73 5.63Q96.96 5.81 97.13 5.98L97.13 5.98L97.13 5.98Q97.29 6.16 97.30 6.27L97.30 6.27L97.30 6.27Q97.06 6.22 96.82 6.20L96.82 6.20L96.82 6.20Q96.59 6.17 96.39 6.17L96.39 6.17L96.39 6.17Q95.76 6.17 95.14 6.48L95.14 6.48L95.14 6.48Q94.51 6.79 93.95 7.32L93.95 7.32L93.95 7.32Q93.39 7.85 92.92 8.57L92.92 8.57L92.92 8.57Q92.44 9.28 92.10 10.09L92.10 10.09L92.10 10.09Q91.76 10.91 91.56 11.77L91.56 11.77L91.56 11.77Q91.36 12.64 91.36 13.48L91.36 13.48L91.36 13.48Q91.36 14.57 91.73 15.11L91.73 15.11L91.73 15.11Q92.09 15.64 92.79 15.64L92.79 15.64L92.79 15.64Q93.13 15.64 93.52 15.51L93.52 15.51L93.52 15.51Q93.91 15.37 94.32 15.13L94.32 15.13L94.32 15.13Q94.72 14.90 95.12 14.56L95.12 14.56L95.12 14.56Q95.51 14.22 95.84 13.82L95.84 13.82L95.84 13.82Q96.33 13.23 96.73 12.48L96.73 12.48L96.73 12.48Q97.12 11.73 97.39 10.89L97.39 10.89L97.39 10.89Q97.66 10.05 97.81 9.16L97.81 9.16L97.81 9.16Q97.96 8.27 97.96 7.42L97.96 7.42L97.96 7.42Q97.96 7.08 97.94 6.85L97.94 6.85L97.94 6.85Q97.93 6.62 97.91 6.46L97.91 6.46L97.91 6.46Q97.89 6.30 97.87 6.20L97.87 6.20L97.87 6.20Q97.86 6.10 97.85 6.03L97.85 6.03L97.85 6.03Q98.01 6.12 98.22 6.24L98.22 6.24L98.22 6.24Q98.42 6.36 98.59 6.59L98.59 6.59L98.59 6.59Q98.77 6.82 98.89 7.20L98.89 7.20L98.89 7.20Q99.01 7.57 99.01 8.18L99.01 8.18L99.01 8.18Q99.01 9.16 98.78 10.10L98.78 10.10L98.78 10.10Q98.55 11.05 98.13 11.90L98.13 11.90L98.13 11.90Q97.72 12.75 97.16 13.50L97.16 13.50L97.16 13.50Q96.60 14.24 95.96 14.80L95.96 14.80L95.96 14.80Q95.12 15.54 94.16 15.95L94.16 15.95L94.16 15.95Q93.21 16.35 92.33 16.35L92.33 16.35L92.33 16.35Q91.04 16.35 90.36 15.53L90.36 15.53L90.36 15.53Q89.68 14.71 89.68 13.12L89.68 13.12L89.68 13.12Q89.68 12.26 89.87 11.31L89.87 11.31L89.87 11.31Q90.06 10.36 90.41 9.44L90.41 9.44L90.41 9.44Q90.75 8.51 91.22 7.68L91.22 7.68L91.22 7.68Q91.70 6.85 92.27 6.21L92.27 6.21L92.27 6.21Q92.83 5.57 93.48 5.19L93.48 5.19L93.48 5.19Q94.14 4.82 94.82 4.82L94.82 4.82L94.82 4.82Q95.05 4.82 95.24 4.85L95.24 4.85L95.24 4.85Q95.44 4.89 95.66 4.98ZM119.43 6.69L119.43 6.69L119.43 6.69Q118.87 6.69 118.57 6.38L118.57 6.38L118.57 6.38Q118.27 6.06 118.27 5.61L118.27 5.61L118.27 5.61Q118.27 5.50 118.31 5.35L118.31 5.35L118.31 5.35Q118.34 5.19 118.40 5.08L118.40 5.08L118.40 5.08Q118.58 5.17 118.94 5.20L118.94 5.20L118.94 5.20Q119.29 5.24 119.77 5.24L119.77 5.24L119.77 5.24Q120.48 5.24 121.39 5.17L121.39 5.17L121.39 5.17Q122.29 5.11 123.12 5.04L123.12 5.04L123.12 5.04Q123.94 4.97 124.57 4.91L124.57 4.91L124.57 4.91Q125.20 4.84 125.38 4.84L125.38 4.84L125.38 4.84Q125.90 4.84 126.13 5.23L126.13 5.23L126.13 5.23Q126.36 5.61 126.48 6.26L126.48 6.26L126.48 6.26Q126.11 6.23 125.75 6.21L125.75 6.21L125.75 6.21Q125.40 6.19 125.15 6.19L125.15 6.19L125.15 6.19Q124.70 6.19 124.24 6.22L124.24 6.22L124.24 6.22Q123.79 6.24 123.33 6.30L123.33 6.30L123.33 6.30Q123.13 6.71 122.89 7.26L122.89 7.26L122.89 7.26Q122.65 7.81 122.42 8.41L122.42 8.41L122.42 8.41Q122.19 9.02 121.98 9.61L121.98 9.61L121.98 9.61Q121.77 10.21 121.62 10.68L121.62 10.68L121.62 10.68Q121.31 11.61 121.08 12.39L121.08 12.39L121.08 12.39Q120.85 13.17 120.67 13.85L120.67 13.85L120.67 13.85Q120.50 14.53 120.37 15.15L120.37 15.15L120.37 15.15Q120.25 15.76 120.15 16.35L120.15 16.35L120.15 16.35Q119.21 16.21 118.58 15.18L118.58 15.18L118.58 15.18Q118.69 14.74 118.85 14.23L118.85 14.23L118.85 14.23Q119.01 13.72 119.23 13.07L119.23 13.07L119.23 13.07Q119.45 12.42 119.74 11.59L119.74 11.59L119.74 11.59Q120.04 10.77 120.41 9.72L120.41 9.72L120.41 9.72Q120.55 9.32 120.71 8.90L120.71 8.90L120.71 8.90Q120.86 8.47 121.01 8.05L121.01 8.05L121.01 8.05Q121.16 7.63 121.27 7.24L121.27 7.24L121.27 7.24Q121.39 6.85 121.48 6.52L121.48 6.52L121.48 6.52Q120.89 6.59 120.36 6.64L120.36 6.64L120.36 6.64Q119.84 6.69 119.43 6.69ZM141.41 7.46L141.41 7.46L141.41 7.46Q141.41 8.13 141.11 8.73L141.11 8.73L141.11 8.73Q140.81 9.32 140.28 9.79L140.28 9.79L140.28 9.79Q139.75 10.26 139.03 10.58L139.03 10.58L139.03 10.58Q138.32 10.91 137.48 11.02L137.48 11.02L137.48 11.02Q137.69 11.65 137.99 12.31L137.99 12.31L137.99 12.31Q138.29 12.98 138.64 13.59L138.64 13.59L138.64 13.59Q138.99 14.21 139.37 14.73L139.37 14.73L139.37 14.73Q139.75 15.25 140.11 15.58L140.11 15.58L140.11 15.58Q140.04 15.72 139.91 15.86L139.91 15.86L139.91 15.86Q139.78 16.00 139.60 16.12L139.60 16.12L139.60 16.12Q139.43 16.24 139.24 16.32L139.24 16.32L139.24 16.32Q139.05 16.39 138.88 16.39L138.88 16.39L138.88 16.39Q138.57 16.39 138.29 16.10L138.29 16.10L138.29 16.10Q138.01 15.81 137.72 15.17L137.72 15.17L137.72 15.17Q137.44 14.53 137.12 13.52L137.12 13.52L137.12 13.52Q136.81 12.50 136.43 11.07L136.43 11.07L136.43 11.07Q136.28 11.07 136.12 11.07L136.12 11.07L136.12 11.07Q135.97 11.07 135.88 11.05L135.88 11.05L135.88 11.05Q135.79 10.99 135.67 10.85L135.67 10.85L135.67 10.85Q135.30 11.66 135.00 12.38L135.00 12.38L135.00 12.38Q134.71 13.09 134.48 13.76L134.48 13.76L134.48 13.76Q134.25 14.42 134.07 15.04L134.07 15.04L134.07 15.04Q133.90 15.67 133.77 16.31L133.77 16.31L133.77 16.31Q133.29 16.20 132.94 15.90L132.94 15.90L132.94 15.90Q132.59 15.61 132.29 15.08L132.29 15.08L132.29 15.08Q132.34 14.95 132.41 14.83L132.41 14.83L132.41 14.83Q132.47 14.71 132.57 14.50L132.57 14.50L132.57 14.50Q132.66 14.28 132.81 13.94L132.81 13.94L132.81 13.94Q132.96 13.61 133.20 13.05L133.20 13.05L133.20 13.05Q133.45 12.49 133.79 11.68L133.79 11.68L133.79 11.68Q134.13 10.86 134.62 9.70L134.62 9.70L134.62 9.70Q134.85 9.18 135.01 8.79L135.01 8.79L135.01 8.79Q135.17 8.40 135.30 8.04L135.30 8.04L135.30 8.04Q135.42 7.69 135.53 7.33L135.53 7.33L135.53 7.33Q135.63 6.97 135.74 6.51L135.74 6.51L135.74 6.51Q135.10 6.73 134.55 7.01L134.55 7.01L134.55 7.01Q133.99 7.28 133.63 7.59L133.63 7.59L133.63 7.59Q133.50 7.50 133.37 7.34L133.37 7.34L133.37 7.34Q133.24 7.17 133.13 6.96L133.13 6.96L133.13 6.96Q133.01 6.76 132.93 6.55L132.93 6.55L132.93 6.55Q132.85 6.34 132.83 6.17L132.83 6.17L132.83 6.17Q133.25 5.89 133.86 5.66L133.86 5.66L133.86 5.66Q134.47 5.42 135.16 5.24L135.16 5.24L135.16 5.24Q135.84 5.07 136.56 4.97L136.56 4.97L136.56 4.97Q137.27 4.87 137.89 4.87L137.89 4.87L137.89 4.87Q139.57 4.87 140.49 5.56L140.49 5.56L140.49 5.56Q141.41 6.26 141.41 7.46ZM137.83 6.02L138.00 6.29L138.00 6.29Q137.90 6.41 137.69 6.79L137.69 6.79L137.69 6.79Q137.48 7.17 137.21 7.69L137.21 7.69L137.21 7.69Q136.93 8.22 136.63 8.83L136.63 8.83L136.63 8.83Q136.33 9.45 136.05 10.05L136.05 10.05L136.05 10.05Q137.10 10.05 137.98 9.86L137.98 9.86L137.98 9.86Q138.87 9.66 139.51 9.30L139.51 9.30L139.51 9.30Q140.15 8.95 140.51 8.46L140.51 8.46L140.51 8.46Q140.87 7.98 140.87 7.39L140.87 7.39L140.87 7.39Q140.87 6.69 140.36 6.32L140.36 6.32L140.36 6.32Q139.86 5.95 138.81 5.95L138.81 5.95L138.81 5.95Q138.57 5.95 138.33 5.97L138.33 5.97L138.33 5.97Q138.10 5.99 137.83 6.02L137.83 6.02ZM149.20 16.24L149.20 16.24L149.20 16.24Q148.53 16.04 148.27 15.85L148.27 15.85L148.27 15.85Q148.01 15.65 148.01 15.36L148.01 15.36L148.01 15.36Q148.01 15.13 148.13 14.73L148.13 14.73L148.13 14.73Q148.26 14.32 148.50 13.77L148.50 13.77L148.50 13.77Q148.75 13.22 149.09 12.54L149.09 12.54L149.09 12.54Q149.44 11.87 149.87 11.10L149.87 11.10L149.87 11.10Q149.51 11.09 149.22 11.08L149.22 11.08L149.22 11.08Q148.93 11.07 148.75 11.07L148.75 11.07L148.75 11.07Q148.83 10.86 149.23 10.71L149.23 10.71L149.23 10.71Q149.62 10.56 150.26 10.44L150.26 10.44L150.26 10.44Q150.81 9.53 151.43 8.71L151.43 8.71L151.43 8.71Q152.05 7.88 152.68 7.19L152.68 7.19L152.68 7.19Q153.31 6.50 153.94 5.97L153.94 5.97L153.94 5.97Q154.57 5.45 155.15 5.14L155.15 5.14L155.15 5.14Q155.16 5.04 155.17 4.97L155.17 4.97L155.17 4.97Q155.18 4.90 155.18 4.87L155.18 4.87L155.18 4.87Q155.37 4.87 155.70 4.97L155.70 4.97L155.70 4.97Q156.03 5.07 156.34 5.21L156.34 5.21L156.34 5.21Q156.66 5.35 156.91 5.49L156.91 5.49L156.91 5.49Q157.15 5.64 157.18 5.74L157.18 5.74L157.18 5.74Q156.72 6.55 156.27 8.17L156.27 8.17L156.27 8.17Q155.82 9.79 155.53 12.04L155.53 12.04L155.53 12.04Q155.46 12.60 155.41 13.31L155.41 13.31L155.41 13.31Q155.36 14.03 155.36 14.91L155.36 14.91L155.36 14.91Q155.36 15.22 155.36 15.54L155.36 15.54L155.36 15.54Q155.36 15.86 155.39 16.21L155.39 16.21L155.39 16.21Q155.36 16.23 155.33 16.23L155.33 16.23L155.33 16.23Q155.30 16.23 155.22 16.23L155.22 16.23L155.22 16.23Q155.02 16.23 154.76 16.16L154.76 16.16L154.76 16.16Q154.50 16.10 154.26 16.01L154.26 16.01L154.26 16.01Q154.01 15.92 153.84 15.81L153.84 15.81L153.84 15.81Q153.66 15.69 153.62 15.61L153.62 15.61L153.62 15.61Q153.61 15.43 153.61 15.25L153.61 15.25L153.61 15.25Q153.61 15.08 153.61 14.88L153.61 14.88L153.61 14.88Q153.61 14.01 153.67 13.12L153.67 13.12L153.67 13.12Q153.73 12.22 153.89 11.27L153.89 11.27L153.89 11.27Q153.69 11.26 153.37 11.23L153.37 11.23L153.37 11.23Q153.05 11.21 152.65 11.20L152.65 11.20L152.65 11.20Q152.25 11.19 151.79 11.16L151.79 11.16L151.79 11.16Q151.34 11.14 150.91 11.13L150.91 11.13L150.91 11.13Q150.57 11.76 150.28 12.38L150.28 12.38L150.28 12.38Q149.98 13.01 149.77 13.64L149.77 13.64L149.77 13.64Q149.53 14.31 149.39 14.98L149.39 14.98L149.39 14.98Q149.24 15.65 149.20 16.24ZM154.60 7.83L154.60 7.83L154.60 7.83Q154.66 7.63 154.73 7.29L154.73 7.29L154.73 7.29Q154.81 6.94 154.88 6.57L154.88 6.57L154.88 6.57Q154.53 6.69 154.10 7.03L154.10 7.03L154.10 7.03Q153.68 7.36 153.22 7.86L153.22 7.86L153.22 7.86Q152.77 8.36 152.30 8.98L152.30 8.98L152.30 8.98Q151.83 9.60 151.40 10.30L151.40 10.30L151.40 10.30Q152.57 10.21 154.07 10.18L154.07 10.18L154.07 10.18Q154.18 9.59 154.31 9.01L154.31 9.01L154.31 9.01Q154.45 8.43 154.60 7.83ZM168.46 16.07L168.46 16.07L168.46 16.07Q168.14 16.24 167.78 16.24L167.78 16.24L167.78 16.24Q167.33 16.18 166.91 16.02L166.91 16.02L166.91 16.02Q166.50 15.85 166.31 15.61L166.31 15.61L166.31 15.61Q166.19 14.92 166.12 14.35L166.12 14.35L166.12 14.35Q166.05 13.78 166.01 13.27L166.01 13.27L166.01 13.27Q165.97 12.75 165.96 12.29L165.96 12.29L165.96 12.29Q165.94 11.82 165.94 11.34L165.94 11.34L165.94 11.34Q165.94 10.71 165.96 10.01L165.96 10.01L165.96 10.01Q165.97 9.31 165.99 8.52L165.99 8.52L165.99 8.52Q166.01 7.73 166.03 6.82L166.03 6.82L166.03 6.82Q166.04 5.92 166.04 4.86L166.04 4.86L166.04 4.86Q166.22 4.86 166.59 4.96L166.59 4.96L166.59 4.96Q166.95 5.07 167.31 5.21L167.31 5.21L167.31 5.21Q167.66 5.35 167.94 5.49L167.94 5.49L167.94 5.49Q168.22 5.64 168.25 5.74L168.25 5.74L168.25 5.74Q168.11 6.13 168.01 6.76L168.01 6.76L168.01 6.76Q167.90 7.39 167.84 8.16L167.84 8.16L167.84 8.16Q167.78 8.93 167.75 9.79L167.75 9.79L167.75 9.79Q167.72 10.64 167.72 11.48L167.72 11.48L167.72 11.48Q167.72 12.11 167.73 12.61L167.73 12.61L167.73 12.61Q167.75 13.10 167.77 13.50L167.77 13.50L167.77 13.50Q167.79 13.90 167.83 14.25L167.83 14.25L167.83 14.25Q167.87 14.59 167.93 14.92L167.93 14.92L167.93 14.92Q168.32 13.73 168.79 12.54L168.79 12.54L168.79 12.54Q169.26 11.35 169.76 10.25L169.76 10.25L169.76 10.25Q170.25 9.16 170.74 8.20L170.74 8.20L170.74 8.20Q171.23 7.25 171.68 6.54L171.68 6.54L171.68 6.54Q172.12 5.84 172.47 5.43L172.47 5.43L172.47 5.43Q172.82 5.01 173.04 4.98L173.04 4.98L173.04 4.98Q173.19 5.01 173.37 5.10L173.37 5.10L173.37 5.10Q173.54 5.19 173.70 5.32L173.70 5.32L173.70 5.32Q173.85 5.45 173.98 5.60L173.98 5.60L173.98 5.60Q174.10 5.75 174.17 5.91L174.17 5.91L174.17 5.91Q173.66 6.09 173.06 6.76L173.06 6.76L173.06 6.76Q172.47 7.43 171.86 8.38L171.86 8.38L171.86 8.38Q171.26 9.32 170.69 10.44L170.69 10.44L170.69 10.44Q170.13 11.55 169.67 12.61L169.67 12.61L169.67 12.61Q169.22 13.68 168.90 14.60L168.90 14.60L168.90 14.60Q168.57 15.53 168.46 16.07ZM185.43 9.21L185.43 9.21L185.43 9.21Q185.89 9.21 186.15 9.46L186.15 9.46L186.15 9.46Q186.41 9.72 186.41 10.16L186.41 10.16L186.41 10.16Q186.41 10.28 186.39 10.39L186.39 10.39L186.39 10.39Q186.37 10.51 186.34 10.60L186.34 10.60L186.34 10.60Q186.16 10.57 185.93 10.55L185.93 10.55L185.93 10.55Q185.71 10.53 185.40 10.53L185.40 10.53L185.40 10.53Q184.80 10.53 184.18 10.63L184.18 10.63L184.18 10.63Q183.57 10.74 183.01 10.81L183.01 10.81L183.01 10.81Q182.69 11.55 182.42 12.24L182.42 12.24L182.42 12.24Q182.15 12.94 181.97 13.51L181.97 13.51L181.97 13.51Q181.78 14.08 181.67 14.50L181.67 14.50L181.67 14.50Q181.57 14.92 181.55 15.13L181.55 15.13L181.55 15.13Q182.69 14.90 183.84 14.73L183.84 14.73L183.84 14.73Q185.00 14.56 186.27 14.48L186.27 14.48L186.27 14.48Q186.42 14.71 186.53 14.99L186.53 14.99L186.53 14.99Q186.63 15.27 186.63 15.60L186.63 15.60L186.63 15.60Q186.63 15.68 186.63 15.78L186.63 15.78L186.63 15.78Q186.63 15.88 186.61 15.97L186.61 15.97L186.61 15.97Q186.21 15.96 185.78 15.95L185.78 15.95L185.78 15.95Q185.35 15.95 184.65 15.95L184.65 15.95L184.65 15.95Q184.18 15.95 183.77 15.97L183.77 15.97L183.77 15.97Q183.36 15.99 182.94 16.03L182.94 16.03L182.94 16.03Q182.52 16.07 182.05 16.14L182.05 16.14L182.05 16.14Q181.58 16.21 180.99 16.31L180.99 16.31L180.99 16.31Q180.35 16.06 179.75 15.08L179.75 15.08L179.75 15.08Q179.98 14.57 180.41 13.54L180.41 13.54L180.41 13.54Q180.84 12.52 181.50 10.79L181.50 10.79L181.50 10.79Q180.87 10.60 180.67 10.09L180.67 10.09L180.67 10.09Q180.74 10.02 181.08 9.92L181.08 9.92L181.08 9.92Q181.41 9.81 181.90 9.70L181.90 9.70L181.90 9.70Q182.11 9.16 182.26 8.75L182.26 8.75L182.26 8.75Q182.41 8.34 182.52 7.99L182.52 7.99L182.52 7.99Q182.63 7.63 182.72 7.29L182.72 7.29L182.72 7.29Q182.81 6.94 182.90 6.54L182.90 6.54L182.90 6.54Q182.41 6.51 182.13 6.27L182.13 6.27L182.13 6.27Q181.85 6.02 181.85 5.63L181.85 5.63L181.85 5.63Q181.85 5.52 181.88 5.36L181.88 5.36L181.88 5.36Q181.92 5.21 181.96 5.10L181.96 5.10L181.96 5.10Q182.24 5.14 182.50 5.15L182.50 5.15L182.50 5.15Q182.76 5.17 183.18 5.17L183.18 5.17L183.18 5.17Q184.06 5.17 184.83 5.12L184.83 5.12L184.83 5.12Q185.60 5.07 186.22 5.01L186.22 5.01L186.22 5.01Q186.84 4.96 187.29 4.91L187.29 4.91L187.29 4.91Q187.74 4.86 187.98 4.86L187.98 4.86L187.98 4.86Q188.30 4.86 188.55 5.19L188.55 5.19L188.55 5.19Q188.80 5.53 188.93 6.15L188.93 6.15L188.93 6.15Q188.50 6.10 188.22 6.09L188.22 6.09L188.22 6.09Q187.95 6.08 187.74 6.08L187.74 6.08L187.74 6.08Q186.97 6.08 186.33 6.15L186.33 6.15L186.33 6.15Q185.70 6.23 185.11 6.31L185.11 6.31L185.11 6.31Q185.02 6.44 184.92 6.64L184.92 6.64L184.92 6.64Q184.81 6.83 184.65 7.18L184.65 7.18L184.65 7.18Q184.48 7.53 184.23 8.06L184.23 8.06L184.23 8.06Q183.99 8.60 183.64 9.39L183.64 9.39L183.64 9.39Q184.17 9.31 184.64 9.26L184.64 9.26L184.64 9.26Q185.11 9.21 185.43 9.21ZM200.38 14.38L200.38 14.38L200.38 14.38Q200.73 14.98 200.73 15.54L200.73 15.54L200.73 15.54Q200.73 15.67 200.71 15.77L200.71 15.77L200.71 15.77Q200.69 15.88 200.66 15.99L200.66 15.99L200.66 15.99Q200.42 15.96 200.17 15.95L200.17 15.95L200.17 15.95Q199.91 15.93 199.63 15.93L199.63 15.93L199.63 15.93Q199.29 15.93 198.95 15.95L198.95 15.95L198.95 15.95Q198.60 15.97 198.18 16.02L198.18 16.02L198.18 16.02Q197.76 16.06 197.25 16.13L197.25 16.13L197.25 16.13Q196.73 16.20 196.04 16.31L196.04 16.31L196.04 16.31Q195.72 16.20 195.40 15.87L195.40 15.87L195.40 15.87Q195.08 15.54 194.80 15.08L194.80 15.08L194.80 15.08Q194.94 14.77 195.15 14.31L195.15 14.31L195.15 14.31Q195.36 13.86 195.64 13.21L195.64 13.21L195.64 13.21Q195.92 12.56 196.26 11.68L196.26 11.68L196.26 11.68Q196.60 10.81 196.99 9.66L196.99 9.66L196.99 9.66Q197.25 8.90 197.43 8.33L197.43 8.33L197.43 8.33Q197.61 7.76 197.76 7.22L197.76 7.22L197.76 7.22Q197.90 6.68 198.04 6.09L198.04 6.09L198.04 6.09Q198.18 5.50 198.35 4.73L198.35 4.73L198.35 4.73Q198.91 4.84 199.33 5.14L199.33 5.14L199.33 5.14Q199.74 5.45 200.12 6.01L200.12 6.01L200.12 6.01Q200.00 6.19 199.82 6.59L199.82 6.59L199.82 6.59Q199.64 7 199.40 7.58L199.40 7.58L199.40 7.58Q199.15 8.16 198.86 8.90L198.86 8.90L198.86 8.90Q198.56 9.63 198.24 10.47L198.24 10.47L198.24 10.47Q197.93 11.30 197.64 12.03L197.64 12.03L197.64 12.03Q197.34 12.75 197.11 13.34L197.11 13.34L197.11 13.34Q196.88 13.93 196.74 14.35L196.74 14.35L196.74 14.35Q196.60 14.77 196.60 14.98L196.60 14.98L196.60 14.98Q196.83 14.97 197.01 14.95L197.01 14.95L197.01 14.95Q197.19 14.94 197.39 14.90L197.39 14.90L197.39 14.90Q197.58 14.87 197.81 14.82L197.81 14.82L197.81 14.82Q198.04 14.77 198.37 14.69L198.37 14.69L198.37 14.69Q198.65 14.62 198.88 14.57L198.88 14.57L198.88 14.57Q199.12 14.52 199.35 14.48L199.35 14.48L199.35 14.48Q199.58 14.45 199.83 14.43L199.83 14.43L199.83 14.43Q200.07 14.41 200.38 14.38Z"></path></g></svg>