<svg data-v-423bf9ae="" xmlns="http://www.w3.org/2000/svg" viewBox="0 0 460 90" class="iconLeftSlogan"><!----><!----><!----><g data-v-423bf9ae="" id="256df660-3227-4b99-913c-c339f3c6be72" fill="#2F190E" transform="matrix(4.285714285714286,0,0,4.285714285714286,121.45217084884644,-7.200000524520874)"><path d="M0.98 2.80L0.98 12.60L3.99 12.60C4.96 12.60 5.77 12.33 6.42 11.79C7.07 11.26 7.39 10.55 7.39 9.66C7.39 9.03 7.22 8.50 6.87 8.09C6.52 7.68 6.04 7.38 5.43 7.20C6.37 6.89 6.83 6.26 6.83 5.32C6.83 4.55 6.55 3.94 5.98 3.49C5.41 3.03 4.65 2.80 3.71 2.80ZM2.52 6.58L2.52 4.20L3.71 4.20C4.76 4.20 5.29 4.60 5.29 5.39C5.29 5.79 5.17 6.09 4.91 6.29C4.66 6.48 4.26 6.58 3.71 6.58ZM2.52 7.98L3.99 7.98C4.56 7.98 5.01 8.12 5.35 8.39C5.68 8.67 5.85 9.07 5.85 9.59C5.85 10.11 5.68 10.51 5.35 10.79C5.01 11.06 4.56 11.20 3.99 11.20L2.52 11.20ZM8.44 9.38C8.44 10.40 8.78 11.21 9.46 11.82C10.13 12.43 10.98 12.74 11.98 12.74C12.99 12.74 13.83 12.43 14.51 11.82C15.19 11.21 15.53 10.40 15.53 9.38C15.53 8.36 15.19 7.55 14.51 6.94C13.83 6.33 12.99 6.02 11.98 6.02C10.98 6.02 10.13 6.33 9.46 6.94C8.78 7.55 8.44 8.36 8.44 9.38ZM9.93 9.38C9.93 8.75 10.12 8.26 10.50 7.90C10.88 7.53 11.38 7.35 11.98 7.35C12.59 7.35 13.09 7.53 13.47 7.90C13.85 8.26 14.04 8.75 14.04 9.38C14.04 10.01 13.85 10.50 13.47 10.86C13.09 11.23 12.59 11.41 11.98 11.41C11.38 11.41 10.88 11.23 10.50 10.86C10.12 10.50 9.93 10.01 9.93 9.38ZM16.37 9.38C16.37 10.40 16.70 11.21 17.38 11.82C18.06 12.43 18.90 12.74 19.91 12.74C20.92 12.74 21.76 12.43 22.44 11.82C23.11 11.21 23.45 10.40 23.45 9.38C23.45 8.36 23.11 7.55 22.44 6.94C21.76 6.33 20.92 6.02 19.91 6.02C18.90 6.02 18.06 6.33 17.38 6.94C16.70 7.55 16.37 8.36 16.37 9.38ZM17.85 9.38C17.85 8.75 18.04 8.26 18.42 7.90C18.81 7.53 19.30 7.35 19.91 7.35C20.51 7.35 21.01 7.53 21.39 7.90C21.77 8.26 21.97 8.75 21.97 9.38C21.97 10.01 21.77 10.50 21.39 10.86C21.01 11.23 20.51 11.41 19.91 11.41C19.30 11.41 18.81 11.23 18.42 10.86C18.04 10.50 17.85 10.01 17.85 9.38ZM24.78 1.68L24.78 12.60L26.25 12.60L26.25 9.34L28.91 12.60L30.73 12.60L27.65 8.82L30.45 6.16L28.63 6.16L26.25 8.43L26.25 1.68ZM43.53 6.90L44.17 12.60L45.78 12.60L44.45 2.59L40.46 9.02L36.47 2.59L35.14 12.60L36.75 12.60L37.39 6.90L40.46 11.69ZM45.92 6.16L48.52 12.21L47.04 15.68L48.72 15.68L52.92 6.16L51.24 6.16L49.42 10.71L47.60 6.16ZM57.12 4.20L59.64 4.20L59.64 12.60L61.18 12.60L61.18 4.20L63.70 4.20L63.70 2.80L57.12 2.80ZM67.19 7.67L67.80 6.47C67.51 6.17 67.11 6.02 66.60 6.02C66.35 6.02 66.09 6.11 65.84 6.29C65.58 6.47 65.36 6.72 65.17 7.03L65.17 6.16L63.63 6.16L63.63 12.60L65.17 12.60L65.17 8.82C65.17 7.84 65.53 7.35 66.25 7.35C66.57 7.35 66.89 7.46 67.19 7.67ZM68.50 3.64C68.50 3.89 68.60 4.11 68.78 4.28C68.97 4.46 69.19 4.55 69.45 4.55C69.72 4.55 69.94 4.46 70.13 4.28C70.31 4.11 70.41 3.89 70.41 3.64C70.41 3.39 70.31 3.17 70.13 3.00C69.94 2.82 69.72 2.73 69.45 2.73C69.19 2.73 68.97 2.82 68.78 3.00C68.60 3.17 68.50 3.39 68.50 3.64ZM68.71 6.16L68.71 12.60L70.20 12.60L70.20 6.16ZM78.95 9.38C78.95 8.32 78.63 7.49 78.01 6.90C77.38 6.31 76.61 6.02 75.68 6.02C74.69 6.02 73.93 6.45 73.42 7.31L73.42 6.16L71.95 6.16L71.95 15.68L73.42 15.68L73.42 11.45C73.93 12.31 74.69 12.74 75.68 12.74C76.61 12.74 77.38 12.45 78.01 11.86C78.63 11.27 78.95 10.44 78.95 9.38ZM77.46 9.38C77.46 10.03 77.27 10.54 76.89 10.88C76.52 11.23 76.02 11.41 75.40 11.41C74.85 11.41 74.38 11.24 74.00 10.91C73.61 10.58 73.42 10.07 73.42 9.38C73.42 8.69 73.61 8.18 74.00 7.85C74.38 7.52 74.85 7.35 75.40 7.35C76.02 7.35 76.52 7.52 76.89 7.87C77.27 8.22 77.46 8.73 77.46 9.38Z"></path></g><defs data-v-423bf9ae=""><linearGradient data-v-423bf9ae="" gradientTransform="rotate(25)" id="ac67fac4-efec-4e27-98ca-d57a3e62322e" x1="0%" y1="0%" x2="100%" y2="0%"><stop data-v-423bf9ae="" offset="0%" style="stop-color: rgb(169, 37, 128); stop-opacity: 1;"></stop><stop data-v-423bf9ae="" offset="100%" style="stop-color: rgb(247, 188, 0); stop-opacity: 1;"></stop></linearGradient></defs><g data-v-423bf9ae="" id="3d544b34-4bb0-4948-9787-129e7ec6e95b" transform="matrix(1.9565217391304348,0,0,1.9565217391304348,-9.608695652173914,-17.608695652173914)" stroke="none" fill="url(#ac67fac4-efec-4e27-98ca-d57a3e62322e)"><path d="M24.609 46.18l-9.702-2.425.485-1.94 9.702 2.425zM37.164 35.613l-.248-1.985 9.924-1.24.248 1.985z"></path><circle cx="22" cy="30" r="3"></circle><path d="M54 17H43v-7a1 1 0 0 0-1-1H22a1 1 0 0 0-1 1v7H10c-2.757 0-5 2.243-5 5v28c0 2.757 2.243 5 5 5h44c2.757 0 5-2.243 5-5V22c0-2.757-2.243-5-5-5zm-31-6h18v6H23v-6zm-1 14c2.757 0 5 2.243 5 5s-2.243 5-5 5-5-2.243-5-5 2.243-5 5-5zm5.276 18.757l-.97 3.881a1 1 0 0 1-1.213.728l-11.642-2.91a.995.995 0 0 1-.728-1.212l.97-3.881a1 1 0 0 1 1.213-.728l11.642 2.91a.995.995 0 0 1 .728 1.212zm21.715-7.903a1 1 0 0 1-.665.378L36.418 37.72a1 1 0 0 1-1.116-.868l-.496-3.969a1 1 0 0 1 .868-1.116l11.908-1.489a1.001 1.001 0 0 1 1.116.869l.496 3.969a.994.994 0 0 1-.203.738z"></path></g><!----><g data-v-423bf9ae="" id="40d1ec46-f8e5-4c22-846a-4d7c4f17feef" fill="#2F190E" transform="matrix(1.3489715637235644,0,0,1.3489715637235644,125.2339851700917,55.08974181991628)"><path d="M7.76 3.78L7.76 4.42L4.38 4.42L4.38 13.02L3.68 13.02L3.68 4.42L0.31 4.42L0.31 3.78L7.76 3.78ZM17.22 3.78L17.22 13.02L16.52 13.02L16.52 3.78L17.22 3.78ZM35.73 3.78L35.73 13.02L35.06 13.02L35.06 6.13L35.14 4.45L35.13 4.45L31.75 13.02L31.11 13.02L27.73 4.45L27.72 4.45L27.80 6.13L27.80 13.02L27.13 13.02L27.13 3.78L28.18 3.78L30.97 10.78L31.43 12.19L31.44 12.19L31.89 10.79L34.68 3.78L35.73 3.78ZM46.34 12.38L52.18 12.38L52.18 13.02L45.64 13.02L45.64 3.78L51.95 3.78L51.95 4.42L46.34 4.42L46.34 7.99L50.78 7.99L50.78 8.65L46.34 8.65L46.34 12.38ZM78.51 3.78L78.51 4.42L75.14 4.42L75.14 13.02L74.44 13.02L74.44 4.42L71.06 4.42L71.06 3.78L78.51 3.78ZM90.45 3.64L90.45 3.64Q91.76 3.64 92.72 4.22L92.72 4.22L92.72 4.22Q93.67 4.80 94.19 5.87L94.19 5.87L94.19 5.87Q94.71 6.94 94.71 8.40L94.71 8.40L94.71 8.40Q94.71 9.86 94.19 10.93L94.19 10.93L94.19 10.93Q93.67 12.00 92.72 12.58L92.72 12.58L92.72 12.58Q91.76 13.16 90.45 13.16L90.45 13.16L90.45 13.16Q89.15 13.16 88.19 12.58L88.19 12.58L88.19 12.58Q87.23 12.00 86.72 10.93L86.72 10.93L86.72 10.93Q86.20 9.86 86.20 8.40L86.20 8.40L86.20 8.40Q86.20 6.94 86.72 5.87L86.72 5.87L86.72 5.87Q87.23 4.80 88.19 4.22L88.19 4.22L88.19 4.22Q89.15 3.64 90.45 3.64L90.45 3.64ZM90.45 4.28L90.45 4.28Q89.38 4.28 88.58 4.78L88.58 4.78L88.58 4.78Q87.79 5.28 87.37 6.21L87.37 6.21L87.37 6.21Q86.94 7.14 86.94 8.40L86.94 8.40L86.94 8.40Q86.94 9.66 87.37 10.59L87.37 10.59L87.37 10.59Q87.79 11.52 88.58 12.02L88.58 12.02L88.58 12.02Q89.38 12.52 90.45 12.52L90.45 12.52L90.45 12.52Q91.53 12.52 92.33 12.02L92.33 12.02L92.33 12.02Q93.13 11.52 93.55 10.59L93.55 10.59L93.55 10.59Q93.98 9.66 93.98 8.40L93.98 8.40L93.98 8.40Q93.98 7.14 93.55 6.21L93.55 6.21L93.55 6.21Q93.13 5.28 92.33 4.78L92.33 4.78L92.33 4.78Q91.53 4.28 90.45 4.28L90.45 4.28ZM121.34 3.78L121.34 4.42L117.96 4.42L117.96 13.02L117.26 13.02L117.26 4.42L113.89 4.42L113.89 3.78L121.34 3.78ZM137.05 13.02L136.22 13.02L133.57 9.02L133.53 9.02L130.80 9.02L130.80 13.02L130.10 13.02L130.10 3.78L133.53 3.78L133.53 3.78Q134.92 3.78 135.74 4.48L135.74 4.48L135.74 4.48Q136.56 5.18 136.56 6.40L136.56 6.40L136.56 6.40Q136.56 7.41 135.97 8.07L135.97 8.07L135.97 8.07Q135.38 8.74 134.36 8.93L134.36 8.93L137.05 13.02ZM130.80 4.42L130.80 8.36L133.52 8.36L133.52 8.36Q134.64 8.36 135.23 7.85L135.23 7.85L135.23 7.85Q135.83 7.35 135.83 6.40L135.83 6.40L135.83 6.40Q135.83 5.45 135.23 4.93L135.23 4.93L135.23 4.93Q134.64 4.42 133.52 4.42L133.52 4.42L130.80 4.42ZM152.35 13.02L151.19 10.12L146.76 10.12L145.61 13.02L144.87 13.02L148.57 3.78L149.39 3.78L153.09 13.02L152.35 13.02ZM147.03 9.48L150.93 9.48L149.32 5.45L148.99 4.47L148.97 4.47L148.64 5.42L147.03 9.48ZM167.89 3.78L164.33 13.02L163.51 13.02L159.94 3.78L160.69 3.78L163.42 10.93L163.91 12.36L164.40 10.93L167.15 3.78L167.89 3.78ZM177.37 12.38L183.20 12.38L183.20 13.02L176.67 13.02L176.67 3.78L182.98 3.78L182.98 4.42L177.37 4.42L177.37 7.99L181.80 7.99L181.80 8.65L177.37 8.65L177.37 12.38ZM192.93 12.38L198.48 12.38L198.48 13.02L192.23 13.02L192.23 3.78L192.93 3.78L192.93 12.38Z"></path></g></svg>